<svg xmlns="http://www.w3.org/2000/svg" viewBox="0 0 1440 900">
<defs><pattern id="g" width="60" height="60" patternUnits="userSpaceOnUse"><path d="M60 0H0V60" fill="none" stroke="#181b1b"/></pattern><radialGradient id="a"><stop stop-color="#d9b47a" stop-opacity=".75"/><stop offset="1" stop-color="#d9b47a" stop-opacity="0"/></radialGradient><radialGradient id="b"><stop stop-color="#8fb5ae" stop-opacity=".75"/><stop offset="1" stop-color="#8fb5ae" stop-opacity="0"/></radialGradient><radialGradient id="r"><stop stop-color="#b66a60" stop-opacity=".75"/><stop offset="1" stop-color="#b66a60" stop-opacity="0"/></radialGradient></defs>
<rect width="1440" height="900" fill="#0a0b0b"/><rect width="1440" height="900" fill="url(#g)"/><text x="58" y="70" fill="#e8e1cf" font-family="monospace" font-size="34" font-weight="700">MORPH-1 / SIGNAL FIELD</text><text x="60" y="108" fill="#8d938c" font-family="monospace" font-size="18">A / B / NUTRIENT / STRESS / DAMAGE</text>
<g font-family="monospace" font-size="15" fill="#8d938c"><rect x="70" y="160" width="625" height="260" rx="8" fill="#0d0f0f" stroke="#2a2d2c"/><text x="95" y="195">SIGNAL A</text><ellipse cx="395" cy="300" rx="220" ry="125" fill="url(#a)"/><path d="M250 300c65-95 230-100 300 0-70 95-235 95-300 0Z" fill="none" stroke="#e8e1cf" stroke-opacity=".35"/>
<rect x="745" y="160" width="625" height="260" rx="8" fill="#0d0f0f" stroke="#2a2d2c"/><text x="770" y="195">SIGNAL B</text><ellipse cx="1070" cy="300" rx="220" ry="125" fill="url(#b)"/><path d="M925 300c65-95 230-100 300 0-70 95-235 95-300 0Z" fill="none" stroke="#e8e1cf" stroke-opacity=".35"/>
<rect x="70" y="500" width="625" height="260" rx="8" fill="#0d0f0f" stroke="#2a2d2c"/><text x="95" y="535">STRESS / DAMAGE</text><ellipse cx="395" cy="640" rx="180" ry="105" fill="url(#r)"/><path d="M250 640c65-95 230-100 300 0-70 95-235 95-300 0Z" fill="none" stroke="#e8e1cf" stroke-opacity=".35"/>
<rect x="745" y="500" width="625" height="260" rx="8" fill="#0d0f0f" stroke="#2a2d2c"/><text x="770" y="535">NUTRIENT</text><ellipse cx="1070" cy="640" rx="210" ry="115" fill="url(#a)"/><path d="M925 640c65-95 230-100 300 0-70 95-235 95-300 0Z" fill="none" stroke="#e8e1cf" stroke-opacity=".35"/></g><text x="60" y="842" fill="#8d938c" font-family="monospace" font-size="15">FIELDS DIFFUSE LOCALLY; CELLS READ ONLY THEIR NEIGHBORHOOD</text>
</svg>
